<svg width="25" height="26" viewBox="0 0 25 26" fill="none" xmlns="http://www.w3.org/2000/svg">
<path d="M12.4987 24.6663C18.942 24.6663 24.1654 19.443 24.1654 12.9997C24.1654 6.55635 18.942 1.33301 12.4987 1.33301C6.05538 1.33301 0.832031 6.55635 0.832031 12.9997C0.832031 19.443 6.05538 24.6663 12.4987 24.6663Z" stroke="#1F4D36" stroke-linecap="round" stroke-linejoin="round"/>
<path d="M9.58203 9.45923C9.58203 8.9024 9.58203 8.62398 9.6984 8.46855C9.7998 8.33309 9.95503 8.24835 10.1238 8.23629C10.3175 8.22246 10.5517 8.37302 11.0201 8.67413L16.5274 12.2146C16.9339 12.4759 17.1371 12.6065 17.2073 12.7726C17.2686 12.9178 17.2686 13.0816 17.2073 13.2267C17.1371 13.3928 16.9339 13.5235 16.5274 13.7848L11.0201 17.3252C10.5517 17.6263 10.3175 17.7769 10.1238 17.7631C9.95503 17.751 9.7998 17.6663 9.6984 17.5308C9.58203 17.3754 9.58203 17.097 9.58203 16.5401V9.45923Z" stroke="#1F4D36" stroke-linecap="round" stroke-linejoin="round"/>
</svg>
